<?xml version="1.0" encoding="UTF-8" standalone="no"?>
<!-- Created with Inkscape (http://www.inkscape.org/) -->

<svg
   width="11in"
   height="8.5in"
   viewBox="0 0 1056 816"
   version="1.1"
   id="svg1"
   xml:space="preserve"
   inkscape:version="1.3.2 (091e20e, 2023-11-25, custom)"
   sodipodi:docname="LOGO1.svg"
   xmlns:inkscape="http://www.inkscape.org/namespaces/inkscape"
   xmlns:sodipodi="http://sodipodi.sourceforge.net/DTD/sodipodi-0.dtd"
   xmlns="http://www.w3.org/2000/svg"
   xmlns:svg="http://www.w3.org/2000/svg"><sodipodi:namedview
     id="namedview1"
     pagecolor="#ffffff"
     bordercolor="#000000"
     borderopacity="0.25"
     inkscape:showpageshadow="2"
     inkscape:pageopacity="0.0"
     inkscape:pagecheckerboard="0"
     inkscape:deskcolor="#d1d1d1"
     inkscape:document-units="in"
     inkscape:zoom="0.90563725"
     inkscape:cx="529.46143"
     inkscape:cy="468.73072"
     inkscape:window-width="1920"
     inkscape:window-height="974"
     inkscape:window-x="-11"
     inkscape:window-y="-11"
     inkscape:window-maximized="1"
     inkscape:current-layer="layer1" /><defs
     id="defs1"><rect
       x="407.56908"
       y="448.16983"
       width="263.90488"
       height="113.99442"
       id="rect5" /><rect
       x="118.47975"
       y="340.24954"
       width="398.72993"
       height="239.99744"
       id="rect17" /><rect
       x="118.47975"
       y="340.24954"
       width="398.72992"
       height="239.99744"
       id="rect17-2" /></defs><g
     inkscape:label="logo"
     inkscape:groupmode="layer"
     id="layer1"><rect
       style="fill:#666666;stroke-width:87.7575;stroke-dasharray:none"
       id="rect3"
       width="540.81"
       height="112.78352"
       x="349.49448"
       y="286.61151"
       ry="56.391758" /><g
       inkscape:label="Layer 1"
       id="layer1-6"
       transform="matrix(2.3385476,0,0,1.7331856,102.28374,163.3524)"><path
         id="rect18"
         style="fill:#494948;fill-opacity:1;stroke-width:0.277873"
         d="m 85.681864,36.659761 c -5.521585,0.90193 -9.248039,3.346578 -13.122402,6.257408 -3.793739,2.850257 -5.711185,5.407593 -9.46217,10.63556 -2.54688,3.549737 -6.443341,4.600468 -8.909075,7.636798 -1.70638,2.101255 -3.311584,4.969893 -3.907307,7.118707 -0.72439,2.612931 -0.5259,5.124313 -0.508538,7.694774 0.03186,4.71649 1.463763,7.543758 2.466149,9.759514 0.677343,1.497253 2.357809,4.040019 4.263233,5.572691 9.518552,7.889902 14.403724,7.463468 25.73612,11.147937 l 10.489799,2.97605 -7.832635,7.17949 c 0,0 -9.43076,-2.60862 -14.379962,-4.12748 -4.949202,-1.51888 -7.236369,-2.23927 -8.070309,-0.5023 -0.83394,1.73697 -0.108569,9.52775 -0.139009,11.52385 -0.01389,0.91073 0.858753,3.56627 -1.148251,3.96771 -2.639837,0.52801 -9.770536,-4.19984 -11.461316,-2.37401 -0.114467,3.64708 2.856798,9.90865 -0.08864,14.17859 -5.666472,8.21457 -19.03053,18.45911 -18.809505,20.65004 0.0973,0.9645 17.238677,-13.86156 23.832398,-15.23113 0.771667,-0.16028 4.271845,1.06725 4.621233,1.1542 6.081953,1.51362 12.347431,2.66711 18.614884,2.65152 1.973162,-0.005 12.323189,0.60038 19.636527,0.43408 5.534142,-0.12584 14.894762,-1.89456 21.630072,-4.95135 3.4887,-1.58333 6.58546,-4.0475 9.30697,-6.74404 2.06801,-2.04903 3.06888,-5.03015 5.18959,-7.02458 2.45589,-2.30966 6.19302,-3.03013 8.48799,-5.49975 2.85768,-3.07514 5.6503,-7.47769 6.05608,-11.04215 0.68973,-6.05862 1.11341,-17.495537 -6.95602,-24.195459 -7.29787,-6.059307 -19.48469,-8.210657 -16.5016,-11.363485 3.0777,-3.252817 5.35157,-4.710826 7.6591,-7.553492 0.62378,-0.768434 3.58176,-4.525192 7.56199,-9.628466 2.43551,-3.122694 4.54331,-7.033736 7.44374,-10.788607 8.42509,-10.907041 18.25397,-22.610024 20.69862,-26.457961 -1.14277,0.420458 -20.68397,20.801132 -20.68397,20.801132 0,0 -11.44548,-3.860827 -17.38298,-4.797901 -8.29164,-1.308611 -16.76852,-1.363609 -25.15869,-1.101588 -6.423781,0.200612 -14.068458,1.210034 -19.17212,2.043698 z"
         sodipodi:nodetypes="sasasssccccsssscsssscsaaaassssssccaass" /><text
         xml:space="preserve"
         transform="matrix(17.26362,0,0,13.645671,-2003.9961,-4651.1292)"
         id="text17"
         style="white-space:pre;shape-inside:url(#rect17);fill:#252525;fill-opacity:1"><tspan
           x="118.48047"
           y="351.1685"
           id="tspan4">s</tspan></text><text
         xml:space="preserve"
         transform="matrix(17.26362,0,0,13.645671,-1990.341,-4664.5704)"
         id="text17-4"
         style="white-space:pre;shape-inside:url(#rect17-2);fill:#fcfcfc;fill-opacity:1"><tspan
           x="118.48047"
           y="351.1685"
           id="tspan6">s</tspan></text></g><text
       xml:space="preserve"
       style="font-style:italic;font-variant:normal;font-weight:normal;font-stretch:normal;font-size:124.463px;font-family:Cambria;-inkscape-font-specification:'Cambria, Italic';font-variant-ligatures:normal;font-variant-caps:normal;font-variant-numeric:normal;font-variant-east-asian:normal;mix-blend-mode:darken;fill:#1a1a1a;fill-opacity:1;stroke-width:90.0584;stroke-dasharray:none"
       x="422.40363"
       y="397.67096"
       id="text3"
       transform="scale(1.0302026,0.97068287)"><tspan
         sodipodi:role="line"
         id="tspan3"
         x="422.40363"
         y="397.67096"
         style="font-style:italic;font-variant:normal;font-weight:normal;font-stretch:normal;font-size:124.463px;font-family:Cambria;-inkscape-font-specification:'Cambria, Italic';font-variant-ligatures:normal;font-variant-caps:normal;font-variant-numeric:normal;font-variant-east-asian:normal;fill:#1a1a1a;fill-opacity:1;stroke-width:90.0584;stroke-dasharray:none">YNDEM</tspan></text><rect
       style="fill:#1a1a1a;fill-opacity:1;stroke-width:64.4185;stroke-dasharray:none"
       id="rect4"
       width="450.35107"
       height="2.604394"
       x="400.87772"
       y="405.23743" /><rect
       style="fill:#1a1a1a;fill-opacity:1;stroke-width:64.4185;stroke-dasharray:none"
       id="rect4-1"
       width="450.35107"
       height="2.604394"
       x="425.39767"
       y="277.35721" /><text
       xml:space="preserve"
       id="text4"
       style="font-style:italic;font-variant:normal;font-weight:normal;font-stretch:normal;font-size:22.2689px;font-family:Cambria;-inkscape-font-specification:'Cambria, Italic';font-variant-ligatures:normal;font-variant-caps:normal;font-variant-numeric:normal;font-variant-east-asian:normal;white-space:pre;shape-inside:url(#rect5);fill:#1a1a1a;fill-opacity:1;stroke-width:54.24;stroke-dasharray:none"
       transform="matrix(1.9717796,0,0,0.72724455,-408.17485,103.00032)"><tspan
         x="407.56836"
         y="468.275"
         id="tspan8">logo by design: Syndem </tspan></text><text
       xml:space="preserve"
       style="font-style:italic;font-variant:normal;font-weight:normal;font-stretch:normal;font-size:26.6667px;font-family:Cambria;-inkscape-font-specification:'Cambria, Italic';font-variant-ligatures:normal;font-variant-caps:normal;font-variant-numeric:normal;font-variant-east-asian:normal;fill:#1a1a1a;fill-opacity:1;stroke-width:54.24;stroke-dasharray:none"
       x="893.99731"
       y="489.55136"
       id="text7"><tspan
         sodipodi:role="line"
         id="tspan7"
         x="893.99731"
         y="489.55136" /></text></g></svg>
