<?xml version="1.0" standalone="no"?>
<!DOCTYPE svg PUBLIC "-//W3C//DTD SVG 20010904//EN"
 "http://www.w3.org/TR/2001/REC-SVG-20010904/DTD/svg10.dtd">
<svg version="1.0" xmlns="http://www.w3.org/2000/svg"
 width="300.000000pt" height="300.000000pt" viewBox="0 0 300.000000 300.000000"
 preserveAspectRatio="xMidYMid meet">
<metadata>
Created by potrace 1.10, written by Peter Selinger 2001-2011
</metadata>
<g transform="translate(0.000000,300.000000) scale(0.100000,-0.100000)"
fill="#000000" stroke="none">
<path d="M1265 2897 c-38 -5 -71 -10 -72 -11 -2 -1 9 -27 23 -57 15 -30 52
-112 84 -184 32 -71 78 -173 103 -226 24 -53 48 -106 52 -118 6 -21 11 -22
118 -19 l111 3 43 95 c23 52 57 127 74 165 109 237 139 309 132 316 -13 12
-207 47 -217 39 -8 -8 -43 -89 -108 -252 -27 -68 -47 -91 -48 -55 -1 7 -29 80
-64 162 l-63 150 -49 0 c-27 0 -80 -4 -119 -8z m140 -35 c10 -7 26 -38 44 -84
4 -13 18 -45 29 -73 11 -27 26 -64 32 -82 17 -45 44 -67 73 -59 25 6 52 53 83
140 8 22 18 44 23 50 5 6 14 28 20 48 7 20 19 42 28 49 17 14 82 13 97 -2 6
-5 18 -9 27 -9 39 0 34 -16 -72 -236 -21 -45 -39 -84 -39 -87 0 -17 -80 -174
-94 -186 -20 -17 -133 -18 -163 -2 -12 6 -25 21 -29 33 -6 22 -31 78 -94 213
-56 122 -120 266 -120 272 0 17 135 30 155 15z"/>
<path d="M960 2816 c-62 -21 -95 -38 -94 -47 1 -8 23 -99 48 -202 26 -104 46
-190 44 -192 -2 -2 -86 48 -186 111 -101 63 -187 114 -191 114 -3 0 -44 -38
-90 -84 l-83 -83 154 -86 c84 -47 227 -128 318 -180 l164 -94 88 65 c64 46 87
69 83 81 -5 17 -14 59 -85 414 -35 170 -48 217 -60 216 -8 0 -58 -15 -110 -33z
m117 -66 c38 -168 97 -461 100 -500 3 -43 2 -46 -39 -77 -70 -51 -98 -63 -122
-51 -65 33 -362 204 -367 211 -3 5 -9 8 -13 7 -4 -1 -45 21 -92 48 l-86 49 33
39 c60 69 82 85 109 78 14 -3 32 -11 40 -18 8 -7 52 -34 98 -61 46 -26 90 -54
98 -62 8 -8 14 -11 14 -8 0 4 15 -4 34 -19 39 -29 68 -33 86 -11 14 16 12 24
-37 224 -25 102 -33 150 -26 160 11 18 108 51 138 48 15 -2 22 -15 32 -57z"/>
<path d="M2050 2812 c0 -5 -20 -107 -45 -228 -64 -309 -77 -375 -73 -384 2 -4
40 -35 86 -69 l83 -61 122 68 c322 181 437 248 437 256 0 12 -151 166 -163
166 -5 0 -75 -41 -155 -90 -79 -50 -146 -89 -148 -87 -2 2 14 75 36 162 22 88
40 164 40 171 0 6 -43 32 -95 58 -93 45 -125 55 -125 38z m114 -62 c35 -17 67
-37 70 -45 3 -8 -3 -47 -13 -87 -10 -40 -26 -107 -35 -148 l-18 -75 22 -17
c25 -20 28 -19 138 54 24 15 45 28 47 28 2 0 26 14 52 30 26 17 54 30 64 30
20 0 122 -106 117 -121 -2 -6 -62 -45 -133 -86 -72 -42 -179 -104 -240 -139
-60 -35 -117 -64 -126 -64 -13 0 -111 64 -148 97 -5 4 7 71 65 346 24 115 46
213 49 218 9 14 20 11 89 -21z"/>
<path d="M326 2317 c-10 -17 -35 -62 -57 -100 l-38 -67 172 -146 c95 -80 174
-150 175 -155 2 -5 -20 -9 -50 -9 -29 0 -131 -5 -227 -12 -160 -11 -174 -13
-182 -32 -8 -20 -29 -207 -24 -214 2 -2 68 4 146 13 79 9 202 22 274 30 72 8
171 19 221 26 l90 11 32 101 32 102 -23 21 c-12 12 -128 117 -257 235 -129
117 -236 216 -238 221 -7 17 -28 6 -46 -25z m92 -69 c57 -51 260 -237 282
-258 8 -8 43 -39 78 -69 65 -56 74 -80 53 -133 -5 -13 -12 -36 -16 -51 -7 -36
-46 -53 -140 -60 -38 -3 -128 -13 -200 -22 -138 -17 -197 -23 -282 -30 -59 -5
-58 -7 -54 70 3 60 18 82 60 89 46 7 240 20 306 21 53 0 78 14 89 50 7 24 -19
51 -184 190 -123 104 -131 112 -122 133 12 33 64 112 73 112 5 0 31 -19 57
-42z"/>
<path d="M1147 1726 c-83 -30 -126 -101 -127 -204 0 -162 146 -259 275 -181
38 22 71 77 57 91 -7 7 -15 0 -26 -21 -29 -56 -106 -77 -166 -46 -88 45 -102
235 -25 312 26 26 41 33 73 33 33 0 45 -6 70 -34 17 -19 33 -48 37 -65 4 -17
13 -31 20 -31 11 0 13 15 8 73 -3 39 -7 74 -9 76 -2 2 -10 -2 -19 -9 -11 -9
-18 -10 -29 -1 -22 18 -98 22 -139 7z"/>
<path d="M1877 1725 c-83 -29 -127 -99 -127 -200 0 -36 6 -80 14 -98 33 -79
124 -127 207 -108 60 14 135 89 111 113 -6 6 -17 -3 -30 -25 -25 -40 -59 -57
-112 -57 -130 0 -177 250 -64 339 58 45 139 11 163 -68 6 -23 18 -41 25 -41
10 0 12 16 8 73 -2 39 -6 74 -8 76 -2 2 -10 -1 -17 -8 -11 -8 -23 -8 -50 4
-44 18 -70 18 -120 0z"/>
<path d="M1392 1718 c3 -7 15 -15 29 -18 l24 -6 0 -169 0 -169 -24 -6 c-14 -3
-26 -11 -29 -18 -3 -9 20 -12 87 -12 72 0 91 3 91 14 0 9 -12 16 -27 18 -27 3
-28 5 -31 76 l-3 72 41 0 c90 0 150 51 150 127 0 34 -6 49 -25 67 -32 30 -64
36 -187 36 -74 0 -99 -3 -96 -12z m218 -38 c14 -14 20 -33 20 -65 0 -55 -25
-81 -81 -87 l-39 -4 0 88 0 88 40 0 c27 0 47 -7 60 -20z"/>
<path d="M2122 1718 c3 -7 15 -15 29 -18 l24 -6 0 -169 0 -170 -27 -3 c-16 -2
-28 -9 -28 -18 0 -11 19 -14 90 -14 71 0 90 3 90 14 0 9 -12 16 -27 18 -27 3
-28 5 -31 76 l-3 72 41 0 c88 0 150 51 150 124 -1 81 -49 106 -206 106 -79 0
-105 -3 -102 -12z m218 -38 c14 -14 20 -33 20 -63 0 -53 -28 -83 -82 -89 l-38
-4 0 88 0 88 40 0 c27 0 47 -7 60 -20z"/>
<path d="M2571 1562 c-72 -190 -84 -212 -111 -212 -11 0 -20 -7 -20 -15 0 -13
13 -15 78 -13 44 2 76 7 75 13 -1 6 -13 12 -25 13 -36 6 -39 15 -22 64 l15 46
71 4 70 3 14 -34 c29 -69 29 -79 -3 -83 -15 -2 -28 -7 -28 -13 0 -6 38 -11 88
-13 73 -2 87 0 87 13 0 8 -9 15 -19 15 -29 0 -41 22 -112 209 -44 117 -69 171
-79 171 -10 0 -35 -54 -79 -168z m93 4 c14 -37 26 -70 26 -72 0 -2 -27 -4 -59
-4 l-60 0 23 58 c13 31 26 66 30 76 9 25 10 23 40 -58z"/>
<path d="M97 1433 c7 -78 21 -185 25 -188 3 -3 324 -24 416 -28 23 -1 42 -4
42 -7 0 -4 -78 -72 -174 -153 l-174 -146 18 -36 c63 -124 110 -185 122 -157 2
5 50 51 108 102 99 89 338 307 388 354 l22 22 -31 99 c-18 55 -32 101 -33 101
-2 2 -252 32 -326 39 -36 3 -114 12 -175 20 -60 8 -138 17 -171 20 l-62 7 5
-49z m253 -8 c185 -21 205 -23 285 -30 39 -3 91 -10 117 -16 41 -10 49 -15 67
-54 11 -24 25 -62 30 -84 9 -39 7 -42 -33 -77 -22 -21 -75 -69 -117 -108 -68
-64 -168 -154 -285 -259 -23 -20 -47 -37 -53 -37 -11 0 -71 88 -84 123 -8 22
14 45 138 147 113 93 175 154 175 173 0 25 -27 34 -120 41 -190 15 -313 27
-320 31 -11 7 -30 152 -23 167 2 4 23 5 46 3 23 -3 103 -12 177 -20z"/>
<path d="M2029 933 c-41 -30 -80 -58 -87 -62 -14 -8 -13 -15 42 -281 13 -63
34 -164 46 -225 12 -60 26 -114 30 -118 7 -8 210 80 210 90 0 2 -18 76 -40
164 -22 89 -40 167 -40 174 0 8 65 -27 152 -81 l151 -95 85 84 84 84 -279 160
-280 160 -74 -54z m148 -29 c38 -20 73 -40 78 -44 6 -4 33 -20 60 -35 259
-144 270 -151 273 -167 3 -16 -86 -108 -104 -108 -6 0 -23 9 -37 20 -14 11
-28 20 -32 20 -3 0 -36 20 -73 44 -90 58 -106 66 -136 66 -48 0 -50 -27 -15
-184 18 -78 30 -149 27 -157 -7 -17 -115 -72 -127 -65 -12 8 -24 59 -76 312
-25 122 -43 227 -40 235 6 14 114 98 127 99 4 0 38 -16 75 -36z"/>
<path d="M820 859 c-113 -65 -251 -144 -308 -175 l-104 -57 84 -84 c45 -45 86
-83 90 -83 4 0 86 49 183 110 98 60 181 110 187 110 5 0 7 -8 4 -17 -10 -36
-85 -349 -88 -367 -3 -16 14 -25 105 -57 72 -24 110 -33 112 -25 2 6 32 148
65 315 34 168 64 310 67 317 5 13 -158 135 -179 133 -7 -1 -105 -55 -218 -120z
m278 46 c54 -37 88 -77 78 -94 -3 -5 -14 -51 -25 -102 -10 -52 -28 -141 -40
-199 -50 -246 -51 -250 -80 -250 -10 0 -42 10 -70 22 l-52 21 6 41 c4 23 14
66 22 96 46 173 52 211 40 244 -10 25 -58 19 -108 -12 -24 -16 -70 -42 -101
-59 -31 -18 -81 -48 -110 -67 -29 -20 -60 -36 -68 -36 -9 0 -38 20 -66 44 -68
61 -62 69 138 173 40 21 75 40 78 44 6 6 109 69 114 69 1 0 43 22 92 50 49 27
91 50 94 50 3 0 29 -16 58 -35z"/>
<path d="M1460 771 c0 -5 -23 -58 -51 -117 -28 -60 -77 -167 -109 -239 -32
-72 -69 -154 -84 -184 -14 -30 -25 -56 -23 -57 5 -5 171 -24 207 -24 l35 0 65
165 c36 90 69 163 74 162 5 -2 38 -75 73 -162 36 -88 66 -161 67 -163 4 -3
219 39 225 44 4 4 -50 130 -120 279 -23 50 -63 137 -89 195 l-47 105 -111 3
c-64 1 -112 -1 -112 -7z m194 -27 c17 -7 24 -21 137 -271 37 -83 78 -172 90
-198 15 -31 18 -50 12 -56 -13 -13 -135 -34 -155 -27 -8 4 -34 53 -57 110
-103 253 -113 254 -211 10 -23 -59 -48 -113 -55 -121 -17 -17 -164 -6 -171 13
-4 11 26 82 191 441 20 44 43 86 52 93 17 12 138 17 167 6z"/>
</g>
</svg>
